#
#
#

mtllib cube.mtl


#
# pCube1 Mesh
#
g pCube1 Mesh


#
# pCube1 Mesh_initialShadingGroup
#
usemtl pCube1 Mesh_initialShadingGroup

v -5.466028 -338.791718 -936.899109
v -924.171082 -338.791718 170.659592
v -924.171082 864.713257 170.659592
v -5.466028 864.717041 -936.899109
v 5.729829 864.713257 942.004822
v 924.438477 864.717041 -165.553009
v 5.729829 -338.791718 942.004822
v 924.438477 -338.791718 -165.553009
v -5.465853 -338.791718 -936.898071
v -924.171082 -338.791718 170.659592
v -924.171082 864.713257 170.659592
v -5.465853 864.713257 -936.898071
v 5.729829 864.713257 942.004822
v 924.438477 864.713257 -165.553131
v 5.729829 -338.791718 942.004822
v 924.438477 -338.791718 -165.553131
vn -0.075771 -0.577351 -0.812973
vn -0.812974 -0.577350 0.075770
vn -0.812974 0.577349 0.075771
vn -0.075772 0.577351 -0.812973
vn 0.075768 0.577350 0.812974
vn 0.812973 0.577351 -0.075769
vn 0.075769 -0.577350 0.812973
vn 0.812973 -0.577350 -0.075770
vn -0.812974 -0.577350 0.075770
vn -0.812974 0.577349 0.075771
vn 0.812973 -0.577350 -0.075770
vn -0.075772 0.577351 -0.812973
vn -0.075771 -0.577350 -0.812973
vn -0.812974 -0.577350 0.075770
vn -0.812974 0.577350 0.075770
vn -0.075771 0.577350 -0.812973
vn 0.075769 0.577350 0.812973
vn 0.812973 0.577350 -0.075770
vn 0.075769 -0.577350 0.812973
vn 0.812973 -0.577350 -0.075770
vt 0.375000 0.000000
vt 0.625000 0.000000
vt 0.625000 0.250000
vt 0.375000 0.250000
vt 0.625000 0.500000
vt 0.375000 0.500000
vt 0.625000 0.750000
vt 0.375000 0.750000
vt 0.625000 1.000000
vt 0.375000 1.000000
vt 0.875000 0.000000
vt 0.875000 0.250000
vt 0.125000 0.000000
vt 0.125000 0.250000
f 1/1/1 2/2/2 3/3/3 4/4/4
f 4/4/4 3/3/3 5/5/5 6/6/6
f 6/6/6 5/5/5 7/7/7 8/8/8
f 8/8/8 7/7/7 2/9/2 1/10/1
f 2/2/9 7/11/7 5/12/5 3/3/10
f 8/13/11 1/1/1 4/4/12 6/14/6
f 9/1/13 10/2/14 11/3/15 12/4/16
f 12/4/16 11/3/15 13/5/17 14/6/18
f 14/6/18 13/5/17 15/7/19 16/8/20
f 16/8/20 15/7/19 10/9/14 9/10/13
f 10/2/14 15/11/19 13/12/17 11/3/15
f 16/13/20 9/1/13 12/4/16 14/14/18
